<svg xmlns="http://www.w3.org/2000/svg" xmlns:xlink="http://www.w3.org/1999/xlink" x="0" y="0" width="662" height="312" style="
        width:662px;
        height:312px;
        background: transparent;
        fill: none;
">
        <svg xmlns="http://www.w3.org/2000/svg"/>
        
        <svg xmlns="http://www.w3.org/2000/svg" class="role-diagram-draw-area"><g class="shapes-region" style="stroke: black; fill: none;" ne="0.10057230073744161"><g class="composite-shape" data-amt="diagram/shapes/plot" transform="matrix(1,0,0,1,15,29)"><g><g><g class="test-xgi"><line x1="18.22453346583028" y1="0" x2="18.22453346583028" y2="282" fill="none" stroke="hsla(0,0%,76%,1)" stroke-width="0.5"/><line x1="66.85366417213079" y1="0" x2="66.85366417213079" y2="282" fill="none" stroke="hsla(0,0%,76%,1)" stroke-width="0.5"/><line x1="115.4827948784313" y1="0" x2="115.4827948784313" y2="282" fill="none" stroke="hsla(0,0%,76%,1)" stroke-width="0.5"/><line x1="164.1119255847318" y1="0" x2="164.1119255847318" y2="282" fill="none" stroke="hsla(0,0%,76%,1)" stroke-width="0.5"/><line x1="212.74105629103235" y1="0" x2="212.74105629103235" y2="282" fill="none" stroke="hsla(0,0%,76%,1)" stroke-width="0.5"/><line x1="261.37018699733284" y1="0" x2="261.37018699733284" y2="282" fill="none" stroke="hsla(0,0%,76%,1)" stroke-width="0.5"/><line x1="309.9993177036334" y1="0" x2="309.9993177036334" y2="282" fill="none" stroke="hsla(0,0%,76%,1)" stroke-width="0.5"/><line x1="358.62844840993387" y1="0" x2="358.62844840993387" y2="282" fill="none" stroke="hsla(0,0%,76%,1)" stroke-width="0.5"/><line x1="407.25757911623435" y1="0" x2="407.25757911623435" y2="282" fill="none" stroke="hsla(0,0%,76%,1)" stroke-width="0.5"/><line x1="455.8867098225349" y1="0" x2="455.8867098225349" y2="282" fill="none" stroke="hsla(0,0%,76%,1)" stroke-width="0.5"/><line x1="504.5158405288354" y1="0" x2="504.5158405288354" y2="282" fill="none" stroke="hsla(0,0%,76%,1)" stroke-width="0.5"/><line x1="553.1449712351359" y1="0" x2="553.1449712351359" y2="282" fill="none" stroke="hsla(0,0%,76%,1)" stroke-width="0.5"/><line x1="601.7741019414365" y1="0" x2="601.7741019414365" y2="282" fill="none" stroke="hsla(0,0%,76%,1)" stroke-width="0.5"/></g><g class="test-ygi"><line x1="0" y1="218.44215258618092" x2="647" y2="218.44215258618092" fill="none" stroke="hsla(0,0%,76%,1)" stroke-width="0.5"/><line x1="0" y1="141.04648728448493" x2="647" y2="141.04648728448493" fill="none" stroke="hsla(0,0%,76%,1)" stroke-width="0.5"/><line x1="0" y1="63.650821982788926" x2="647" y2="63.650821982788926" fill="none" stroke="hsla(0,0%,76%,1)" stroke-width="0.5"/></g></g><g><g class="test-xti" style="font-family: Asana-Math, Asana;"><line x1="0" y1="141.04648728448495" x2="643" y2="141.04648728448495" fill="none" stroke="hsla(0,0%,75%,1)" stroke-opacity="1" stroke-width="1"/><line x1="18.22453346583028" y1="137.04648728448495" x2="18.22453346583028" y2="145.04648728448495" fill="none" stroke="hsla(0,0%,75%,1)" stroke-opacity="1" stroke-width="1"/><line x1="66.85366417213079" y1="137.04648728448495" x2="66.85366417213079" y2="145.04648728448495" fill="none" stroke="hsla(0,0%,75%,1)" stroke-opacity="1" stroke-width="1"/><line x1="115.4827948784313" y1="137.04648728448495" x2="115.4827948784313" y2="145.04648728448495" fill="none" stroke="hsla(0,0%,75%,1)" stroke-opacity="1" stroke-width="1"/><line x1="164.1119255847318" y1="137.04648728448495" x2="164.1119255847318" y2="145.04648728448495" fill="none" stroke="hsla(0,0%,75%,1)" stroke-opacity="1" stroke-width="1"/><line x1="212.74105629103235" y1="137.04648728448495" x2="212.74105629103235" y2="145.04648728448495" fill="none" stroke="hsla(0,0%,75%,1)" stroke-opacity="1" stroke-width="1"/><line x1="261.37018699733284" y1="137.04648728448495" x2="261.37018699733284" y2="145.04648728448495" fill="none" stroke="hsla(0,0%,75%,1)" stroke-opacity="1" stroke-width="1"/><line x1="358.62844840993387" y1="137.04648728448495" x2="358.62844840993387" y2="145.04648728448495" fill="none" stroke="hsla(0,0%,75%,1)" stroke-opacity="1" stroke-width="1"/><line x1="407.25757911623435" y1="137.04648728448495" x2="407.25757911623435" y2="145.04648728448495" fill="none" stroke="hsla(0,0%,75%,1)" stroke-opacity="1" stroke-width="1"/><line x1="455.8867098225349" y1="137.04648728448495" x2="455.8867098225349" y2="145.04648728448495" fill="none" stroke="hsla(0,0%,75%,1)" stroke-opacity="1" stroke-width="1"/><line x1="504.5158405288354" y1="137.04648728448495" x2="504.5158405288354" y2="145.04648728448495" fill="none" stroke="hsla(0,0%,75%,1)" stroke-opacity="1" stroke-width="1"/><line x1="553.1449712351359" y1="137.04648728448495" x2="553.1449712351359" y2="145.04648728448495" fill="none" stroke="hsla(0,0%,75%,1)" stroke-opacity="1" stroke-width="1"/><line x1="601.7741019414365" y1="137.04648728448495" x2="601.7741019414365" y2="145.04648728448495" fill="none" stroke="hsla(0,0%,75%,1)" stroke-opacity="1" stroke-width="1"/><path d="M638,137.44648728448496 L646,141.04648728448495 L638,144.64648728448495 Z" stroke="none" stroke-width="1" fill="hsla(0,0%,20%,1)" fill-opacity="1"/></g><g class="test-yti" style="font-family: Asana-Math, Asana;"><line x1="310" y1="4" x2="310" y2="282" fill="none" stroke="hsla(0,0%,75%,1)" stroke-opacity="1" stroke-width="1"/><line x1="306" y1="218.44215258618092" x2="314" y2="218.44215258618092" fill="none" stroke="hsla(0,0%,75%,1)" stroke-opacity="1" stroke-width="1"/><line x1="306" y1="63.650821982788926" x2="314" y2="63.650821982788926" fill="none" stroke="hsla(0,0%,75%,1)" stroke-opacity="1" stroke-width="1"/><path d="M306.4,9 L310,1 L313.6,9 Z" stroke="none" stroke-width="1" fill="hsla(0,0%,20%,1)" fill-opacity="1"/></g><g class="test-plot-expression"><defs><clipPath id="cpkmfaqnit4"><rect x="1" y="1" width="645" height="280"/></clipPath></defs><g clip-path="url(#cpkmfaqnit4)"><path d=" M0.00,117.47 L0.59,124.14 L1.18,131.03 L1.77,138.06 L2.35,145.12 L2.94,152.12 L3.53,158.99 L4.12,165.62 L4.71,171.93 L5.30,177.84 L5.89,183.27 L6.48,188.15 L7.06,192.42 L7.65,196.02 L8.24,198.91 L8.83,201.04 L9.42,202.39 L10.01,202.95 L10.60,202.70 L11.19,201.65 L11.77,199.81 L12.36,197.21 L12.95,193.87 L13.54,189.85 L14.13,185.20 L14.72,179.97 L15.31,174.23 L15.90,168.06 L16.48,161.55 L17.07,154.76 L17.66,147.80 L18.25,140.75 L18.84,133.70 L19.43,126.75 L20.02,119.98 L20.61,113.49 L21.19,107.36 L21.78,101.66 L22.37,96.48 L22.96,91.87 L23.55,87.91 L24.14,84.64 L24.73,82.10 L25.31,80.32 L25.90,79.34 L26.49,79.16 L27.08,79.78 L27.67,81.21 L28.26,83.40 L28.85,86.35 L29.44,90.01 L30.02,94.34 L30.61,99.27 L31.20,104.74 L31.79,110.69 L32.38,117.03 L32.97,123.68 L33.56,130.56 L34.15,137.58 L34.73,144.64 L35.32,151.65 L35.91,158.53 L36.50,165.18 L37.09,171.51 L37.68,177.45 L38.27,182.92 L38.86,187.84 L39.44,192.15 L40.03,195.80 L40.62,198.73 L41.21,200.92 L41.80,202.33 L42.39,202.94 L42.98,202.74 L43.57,201.74 L44.15,199.96 L44.74,197.41 L45.33,194.12 L45.92,190.15 L46.51,185.53 L47.10,180.34 L47.69,174.64 L48.27,168.50 L48.86,162.00 L49.45,155.23 L50.04,148.27 L50.63,141.23 L51.22,134.18 L51.81,127.21 L52.40,120.43 L52.98,113.92 L53.57,107.76 L54.16,102.03 L54.75,96.81 L55.34,92.17 L55.93,88.16 L56.52,84.84 L57.11,82.25 L57.69,80.42 L58.28,79.38 L58.87,79.15 L59.46,79.72 L60.05,81.08 L60.64,83.23 L61.23,86.13 L61.82,89.74 L62.40,94.02 L62.99,98.91 L63.58,104.35 L64.17,110.27 L64.76,116.59 L65.35,123.22 L65.94,130.09 L66.53,137.10 L67.11,144.16 L67.70,151.18 L68.29,158.07 L68.88,164.73 L69.47,171.09 L70.06,177.06 L70.65,182.56 L71.23,187.52 L71.82,191.88 L72.41,195.57 L73.00,198.56 L73.59,200.79 L74.18,202.26 L74.77,202.92 L75.36,202.78 L75.94,201.84 L76.53,200.10 L77.12,197.60 L77.71,194.37 L78.30,190.44 L78.89,185.86 L79.48,180.71 L80.07,175.04 L80.65,168.92 L81.24,162.45 L81.83,155.69 L82.42,148.75 L83.01,141.71 L83.60,134.65 L84.19,127.68 L84.78,120.89 L85.36,114.35 L85.95,108.17 L86.54,102.41 L87.13,97.15 L87.72,92.46 L88.31,88.41 L88.90,85.04 L89.48,82.40 L90.07,80.52 L90.66,79.43 L91.25,79.14 L91.84,79.65 L92.43,80.97 L93.02,83.06 L93.61,85.91 L94.19,89.47 L94.78,93.71 L95.37,98.56 L95.96,103.97 L96.55,109.85 L97.14,116.15 L97.73,122.76 L98.32,129.62 L98.90,136.62 L99.49,143.68 L100.08,150.70 L100.67,157.60 L101.26,164.29 L101.85,170.67 L102.44,176.67 L103.03,182.20 L103.61,187.20 L104.20,191.60 L104.79,195.34 L105.38,198.38 L105.97,200.67 L106.56,202.18 L107.15,202.90 L107.74,202.82 L108.32,201.93 L108.91,200.25 L109.50,197.80 L110.09,194.61 L110.68,190.72 L111.27,186.19 L111.86,181.08 L112.44,175.44 L113.03,169.35 L113.62,162.90 L114.21,156.16 L114.80,149.23 L115.39,142.19 L115.98,135.13 L116.57,128.15 L117.15,121.34 L117.74,114.79 L118.33,108.57 L118.92,102.78 L119.51,97.49 L120.10,92.76 L120.69,88.66 L121.28,85.25 L121.86,82.55 L122.45,80.62 L123.04,79.48 L123.63,79.13 L124.22,79.59 L124.81,80.85 L125.40,82.89 L125.99,85.69 L126.57,89.21 L127.16,93.40 L127.75,98.22 L128.34,103.58 L128.93,109.44 L129.52,115.71 L130.11,122.30 L130.70,129.14 L131.28,136.14 L131.87,143.20 L132.46,150.23 L133.05,157.14 L133.64,163.84 L134.23,170.25 L134.82,176.28 L135.40,181.84 L135.99,186.88 L136.58,191.32 L137.17,195.11 L137.76,198.19 L138.35,200.54 L138.94,202.10 L139.53,202.88 L140.11,202.85 L140.70,202.01 L141.29,200.39 L141.88,197.99 L142.47,194.85 L143.06,191.01 L143.65,186.52 L144.24,181.44 L144.82,175.84 L145.41,169.78 L146.00,163.35 L146.59,156.63 L147.18,149.70 L147.77,142.67 L148.36,135.61 L148.95,128.62 L149.53,121.80 L150.12,115.22 L150.71,108.98 L151.30,103.16 L151.89,97.83 L152.48,93.06 L153.07,88.92 L153.66,85.46 L154.24,82.71 L154.83,80.73 L155.42,79.53 L156.01,79.13 L156.60,79.54 L157.19,80.74 L157.78,82.73 L158.36,85.48 L158.95,88.95 L159.54,93.10 L160.13,97.87 L160.72,103.20 L161.31,109.03 L161.90,115.27 L162.49,121.85 L163.07,128.67 L163.66,135.66 L164.25,142.72 L164.84,149.76 L165.43,156.68 L166.02,163.40 L166.61,169.83 L167.20,175.88 L167.78,181.48 L168.37,186.56 L168.96,191.04 L169.55,194.87 L170.14,198.01 L170.73,200.40 L171.32,202.02 L171.91,202.85 L172.49,202.87 L173.08,202.09 L173.67,200.52 L174.26,198.17 L174.85,195.08 L175.44,191.29 L176.03,186.84 L176.62,181.80 L177.20,176.23 L177.79,170.20 L178.38,163.79 L178.97,157.09 L179.56,150.18 L180.15,143.15 L180.74,136.09 L181.32,129.09 L181.91,122.25 L182.50,115.66 L183.09,109.39 L183.68,103.54 L184.27,98.18 L184.86,93.37 L185.45,89.18 L186.03,85.67 L186.62,82.88 L187.21,80.84 L187.80,79.59 L188.39,79.13 L188.98,79.48 L189.57,80.63 L190.16,82.57 L190.74,85.27 L191.33,88.69 L191.92,92.80 L192.51,97.53 L193.10,102.82 L193.69,108.62 L194.28,114.84 L194.87,121.39 L195.45,128.20 L196.04,135.18 L196.63,142.24 L197.22,149.28 L197.81,156.21 L198.40,162.95 L198.99,169.40 L199.58,175.48 L200.16,181.12 L200.75,186.23 L201.34,190.76 L201.93,194.64 L202.52,197.82 L203.11,200.26 L203.70,201.94 L204.28,202.82 L204.87,202.90 L205.46,202.17 L206.05,200.65 L206.64,198.36 L207.23,195.32 L207.82,191.57 L208.41,187.17 L208.99,182.16 L209.58,176.63 L210.17,170.62 L210.76,164.24 L211.35,157.55 L211.94,150.65 L212.53,143.62 L213.12,136.56 L213.70,129.56 L214.29,122.71 L214.88,116.10 L215.47,109.81 L216.06,103.92 L216.65,98.52 L217.24,93.68 L217.83,89.44 L218.41,85.88 L219.00,83.04 L219.59,80.95 L220.18,79.65 L220.77,79.14 L221.36,79.43 L221.95,80.53 L222.54,82.42 L223.12,85.06 L223.71,88.44 L224.30,92.50 L224.89,97.19 L225.48,102.45 L226.07,108.21 L226.66,114.40 L227.24,120.94 L227.83,127.74 L228.42,134.71 L229.01,141.76 L229.60,148.80 L230.19,155.75 L230.78,162.50 L231.37,168.97 L231.95,175.08 L232.54,180.75 L233.13,185.90 L233.72,190.47 L234.31,194.39 L234.90,197.63 L235.49,200.12 L236.08,201.85 L236.66,202.78 L237.25,202.92 L237.84,202.25 L238.43,200.78 L239.02,198.54 L239.61,195.55 L240.20,191.85 L240.79,187.49 L241.37,182.52 L241.96,177.02 L242.55,171.05 L243.14,164.68 L243.73,158.01 L244.32,151.12 L244.91,144.10 L245.49,137.04 L246.08,130.03 L246.67,123.17 L247.26,116.54 L247.85,110.22 L248.44,104.31 L249.03,98.87 L249.62,93.99 L250.20,89.71 L250.79,86.10 L251.38,83.21 L251.97,81.07 L252.56,79.71 L253.15,79.15 L253.74,79.39 L254.33,80.43 L254.91,82.26 L255.50,84.86 L256.09,88.19 L256.68,92.20 L257.27,96.85 L257.86,102.07 L258.45,107.81 L259.04,113.97 L259.62,120.48 L260.21,127.27 L260.80,134.23 L261.39,141.28 L261.98,148.33 L262.57,155.28 L263.16,162.05 L263.75,168.54 L264.33,174.68 L264.92,180.38 L265.51,185.57 L266.10,190.18 L266.69,194.15 L267.28,197.43 L267.87,199.98 L268.45,201.76 L269.04,202.75 L269.63,202.93 L270.22,202.32 L270.81,200.90 L271.40,198.71 L271.99,195.77 L272.58,192.12 L273.16,187.80 L273.75,182.88 L274.34,177.41 L274.93,171.46 L275.52,165.13 L276.11,158.48 L276.70,151.60 L277.29,144.58 L277.87,137.52 L278.46,130.51 L279.05,123.63 L279.64,116.98 L280.23,110.64 L280.82,104.70 L281.41,99.23 L282.00,94.30 L282.58,89.98 L283.17,86.33 L283.76,83.38 L284.35,81.19 L284.94,79.78 L285.53,79.16 L286.12,79.35 L286.71,80.34 L287.29,82.11 L287.88,84.66 L288.47,87.94 L289.06,91.91 L289.65,96.52 L290.24,101.70 L290.83,107.40 L291.41,113.54 L292.00,120.03 L292.59,126.80 L293.18,133.75 L293.77,140.80 L294.36,147.85 L294.95,154.81 L295.54,161.60 L296.12,168.11 L296.71,174.28 L297.30,180.01 L297.89,185.23 L298.48,189.88 L299.07,193.90 L299.66,197.23 L300.25,199.83 L300.83,201.66 L301.42,202.70 L302.01,202.95 L302.60,202.39 L303.19,201.03 L303.78,198.89 L304.37,195.99 L304.96,192.39 L305.54,188.11 L306.13,183.23 L306.72,177.79 L307.31,171.88 L307.90,165.57 L308.49,158.94 L309.08,152.07 L309.67,145.06 L310.25,138.00 L310.84,130.98 L311.43,124.09 L312.02,117.42 L312.61,111.06 L313.20,105.09 L313.79,99.58 L314.37,94.62 L314.96,90.25 L315.55,86.55 L316.14,83.56 L316.73,81.32 L317.32,79.85 L317.91,79.18 L318.50,79.31 L319.08,80.24 L319.67,81.97 L320.26,84.46 L320.85,87.69 L321.44,91.62 L322.03,96.18 L322.62,101.33 L323.21,107.00 L323.79,113.11 L324.38,119.58 L324.97,126.33 L325.56,133.28 L326.15,140.32 L326.74,147.37 L327.33,154.35 L327.92,161.14 L328.50,167.68 L329.09,173.87 L329.68,179.63 L330.27,184.90 L330.86,189.59 L331.45,193.65 L332.04,197.03 L332.63,199.67 L333.21,201.56 L333.80,202.66 L334.39,202.96 L334.98,202.45 L335.57,201.14 L336.16,199.06 L336.75,196.21 L337.33,192.65 L337.92,188.42 L338.51,183.58 L339.10,178.18 L339.69,172.30 L340.28,166.01 L340.87,159.39 L341.46,152.54 L342.04,145.54 L342.63,138.48 L343.22,131.45 L343.81,124.55 L344.40,117.86 L344.99,111.48 L345.58,105.48 L346.17,99.94 L346.75,94.93 L347.34,90.53 L347.93,86.78 L348.52,83.74 L349.11,81.44 L349.70,79.92 L350.29,79.20 L350.88,79.27 L351.46,80.15 L352.05,81.83 L352.64,84.27 L353.23,87.45 L353.82,91.33 L354.41,95.85 L355.00,100.97 L355.59,106.60 L356.17,112.68 L356.76,119.13 L357.35,125.87 L357.94,132.80 L358.53,139.84 L359.12,146.90 L359.71,153.88 L360.29,160.69 L360.88,167.25 L361.47,173.46 L362.06,179.26 L362.65,184.56 L363.24,189.29 L363.83,193.39 L364.42,196.82 L365.00,199.52 L365.59,201.46 L366.18,202.61 L366.77,202.96 L367.36,202.51 L367.95,201.26 L368.54,199.22 L369.13,196.43 L369.71,192.92 L370.30,188.73 L370.89,183.93 L371.48,178.56 L372.07,172.71 L372.66,166.45 L373.25,159.85 L373.84,153.01 L374.42,146.02 L375.01,138.96 L375.60,131.93 L376.19,125.02 L376.78,118.31 L377.37,111.90 L377.96,105.87 L378.55,100.30 L379.13,95.26 L379.72,90.81 L380.31,87.02 L380.90,83.92 L381.49,81.58 L382.08,80.00 L382.67,79.22 L383.25,79.24 L383.84,80.07 L384.43,81.69 L385.02,84.08 L385.61,87.21 L386.20,91.04 L386.79,95.53 L387.38,100.60 L387.96,106.20 L388.55,112.26 L389.14,118.68 L389.73,125.40 L390.32,132.33 L390.91,139.36 L391.50,146.42 L392.09,153.41 L392.67,160.23 L393.26,166.81 L393.85,173.05 L394.44,178.88 L395.03,184.21 L395.62,188.99 L396.21,193.14 L396.80,196.61 L397.38,199.36 L397.97,201.35 L398.56,202.56 L399.15,202.96 L399.74,202.56 L400.33,201.37 L400.92,199.38 L401.51,196.64 L402.09,193.18 L402.68,189.04 L403.27,184.27 L403.86,178.94 L404.45,173.12 L405.04,166.88 L405.63,160.31 L406.21,153.48 L406.80,146.50 L407.39,139.44 L407.98,132.40 L408.57,125.48 L409.16,118.76 L409.75,112.33 L410.34,106.27 L410.92,100.66 L411.51,95.58 L412.10,91.09 L412.69,87.25 L413.28,84.11 L413.87,81.71 L414.46,80.08 L415.05,79.25 L415.63,79.22 L416.22,79.99 L416.81,81.55 L417.40,83.89 L417.99,86.98 L418.58,90.76 L419.17,95.20 L419.76,100.24 L420.34,105.81 L420.93,111.83 L421.52,118.24 L422.11,124.94 L422.70,131.85 L423.29,138.88 L423.88,145.94 L424.46,152.94 L425.05,159.78 L425.64,166.37 L426.23,172.64 L426.82,178.50 L427.41,183.87 L428.00,188.68 L428.59,192.88 L429.17,196.39 L429.76,199.19 L430.35,201.24 L430.94,202.50 L431.53,202.96 L432.12,202.62 L432.71,201.47 L433.30,199.54 L433.88,196.85 L434.47,193.44 L435.06,189.34 L435.65,184.61 L436.24,179.32 L436.83,173.53 L437.42,167.32 L438.01,160.76 L438.59,153.95 L439.18,146.97 L439.77,139.92 L440.36,132.88 L440.95,125.94 L441.54,119.21 L442.13,112.75 L442.72,106.67 L443.30,101.03 L443.89,95.91 L444.48,91.38 L445.07,87.49 L445.66,84.30 L446.25,81.85 L446.84,80.17 L447.42,79.28 L448.01,79.19 L448.60,79.91 L449.19,81.42 L449.78,83.71 L450.37,86.74 L450.96,90.48 L451.55,94.88 L452.13,99.88 L452.72,105.41 L453.31,111.41 L453.90,117.79 L454.49,124.48 L455.08,131.38 L455.67,138.40 L456.26,145.46 L456.84,152.46 L457.43,159.32 L458.02,165.94 L458.61,172.23 L459.20,178.12 L459.79,183.52 L460.38,188.37 L460.97,192.61 L461.55,196.18 L462.14,199.03 L462.73,201.12 L463.32,202.44 L463.91,202.95 L464.50,202.67 L465.09,201.58 L465.68,199.70 L466.26,197.06 L466.85,193.69 L467.44,189.64 L468.03,184.95 L468.62,179.70 L469.21,173.94 L469.80,167.75 L470.38,161.22 L470.97,154.42 L471.56,147.45 L472.15,140.40 L472.74,133.35 L473.33,126.41 L473.92,119.66 L474.51,113.18 L475.09,107.07 L475.68,101.39 L476.27,96.24 L476.86,91.66 L477.45,87.73 L478.04,84.49 L478.63,81.99 L479.22,80.26 L479.80,79.31 L480.39,79.17 L480.98,79.84 L481.57,81.30 L482.16,83.53 L482.75,86.52 L483.34,90.21 L483.93,94.56 L484.51,99.52 L485.10,105.02 L485.69,110.99 L486.28,117.35 L486.87,124.01 L487.46,130.90 L488.05,137.92 L488.64,144.98 L489.22,151.99 L489.81,158.86 L490.40,165.50 L490.99,171.81 L491.58,177.73 L492.17,183.17 L492.76,188.06 L493.34,192.34 L493.93,195.96 L494.52,198.86 L495.11,201.01 L495.70,202.37 L496.29,202.95 L496.88,202.71 L497.47,201.68 L498.05,199.85 L498.64,197.26 L499.23,193.94 L499.82,189.93 L500.41,185.29 L501.00,180.07 L501.59,174.34 L502.18,168.18 L502.76,161.67 L503.35,154.89 L503.94,147.93 L504.53,140.88 L505.12,133.83 L505.71,126.88 L506.30,120.11 L506.89,113.61 L507.47,107.47 L508.06,101.76 L508.65,96.57 L509.24,91.96 L509.83,87.98 L510.42,84.69 L511.01,82.14 L511.60,80.35 L512.18,79.35 L512.77,79.16 L513.36,79.77 L513.95,81.17 L514.54,83.36 L515.13,86.29 L515.72,89.94 L516.30,94.25 L516.89,99.17 L517.48,104.63 L518.07,110.57 L518.66,116.91 L519.25,123.55 L519.84,130.43 L520.43,137.44 L521.01,144.50 L521.60,151.52 L522.19,158.40 L522.78,165.05 L523.37,171.40 L523.96,177.34 L524.55,182.82 L525.14,187.75 L525.72,192.07 L526.31,195.73 L526.90,198.68 L527.49,200.88 L528.08,202.31 L528.67,202.93 L529.26,202.75 L529.85,201.77 L530.43,200.00 L531.02,197.46 L531.61,194.19 L532.20,190.23 L532.79,185.62 L533.38,180.44 L533.97,174.75 L534.56,168.61 L535.14,162.12 L535.73,155.36 L536.32,148.41 L536.91,141.36 L537.50,134.31 L538.09,127.34 L538.68,120.56 L539.26,114.04 L539.85,107.87 L540.44,102.14 L541.03,96.91 L541.62,92.25 L542.21,88.23 L542.80,84.89 L543.39,82.29 L543.97,80.45 L544.56,79.39 L545.15,79.14 L545.74,79.70 L546.33,81.05 L546.92,83.18 L547.51,86.07 L548.10,89.67 L548.68,93.94 L549.27,98.82 L549.86,104.25 L550.45,110.15 L551.04,116.46 L551.63,123.09 L552.22,129.96 L552.81,136.96 L553.39,144.03 L553.98,151.05 L554.57,157.94 L555.16,164.61 L555.75,170.98 L556.34,176.95 L556.93,182.46 L557.52,187.43 L558.10,191.80 L558.69,195.51 L559.28,198.51 L559.87,200.76 L560.46,202.24 L561.05,202.92 L561.64,202.79 L562.22,201.86 L562.81,200.14 L563.40,197.66 L563.99,194.43 L564.58,190.52 L565.17,185.96 L565.76,180.81 L566.35,175.15 L566.93,169.04 L567.52,162.57 L568.11,155.82 L568.70,148.88 L569.29,141.84 L569.88,134.78 L570.47,127.81 L571.06,121.01 L571.64,114.47 L572.23,108.28 L572.82,102.51 L573.41,97.24 L574.00,92.55 L574.59,88.48 L575.18,85.10 L575.77,82.44 L576.35,80.55 L576.94,79.44 L577.53,79.14 L578.12,79.64 L578.71,80.93 L579.30,83.01 L579.89,85.85 L580.47,89.40 L581.06,93.63 L581.65,98.47 L582.24,103.86 L582.83,109.74 L583.42,116.02 L584.01,122.64 L584.60,129.49 L585.18,136.49 L585.77,143.55 L586.36,150.57 L586.95,157.48 L587.54,164.17 L588.13,170.56 L588.72,176.56 L589.31,182.10 L589.89,187.11 L590.48,191.52 L591.07,195.28 L591.66,198.33 L592.25,200.63 L592.84,202.16 L593.43,202.89 L594.02,202.82 L594.60,201.95 L595.19,200.29 L595.78,197.85 L596.37,194.68 L596.96,190.80 L597.55,186.28 L598.14,181.18 L598.73,175.55 L599.31,169.47 L599.90,163.02 L600.49,156.29 L601.08,149.36 L601.67,142.32 L602.26,135.26 L602.85,128.28 L603.43,121.47 L604.02,114.91 L604.61,108.69 L605.20,102.89 L605.79,97.58 L606.38,92.85 L606.97,88.73 L607.56,85.30 L608.14,82.60 L608.73,80.65 L609.32,79.49 L609.91,79.13 L610.50,79.58 L611.09,80.82 L611.68,82.85 L612.27,85.63 L612.85,89.14 L613.44,93.32 L614.03,98.12 L614.62,103.48 L615.21,109.33 L615.80,115.59 L616.39,122.18 L616.98,129.01 L617.56,136.01 L618.15,143.07 L618.74,150.10 L619.33,157.01 L619.92,163.72 L620.51,170.13 L621.10,176.17 L621.69,181.74 L622.27,186.79 L622.86,191.24 L623.45,195.05 L624.04,198.14 L624.63,200.50 L625.22,202.08 L625.81,202.87 L626.39,202.85 L626.98,202.04 L627.57,200.42 L628.16,198.04 L628.75,194.91 L629.34,191.09 L629.93,186.61 L630.52,181.54 L631.10,175.95 L631.69,169.90 L632.28,163.47 L632.87,156.75 L633.46,149.83 L634.05,142.80 L634.64,135.74 L635.23,128.75 L635.81,121.92 L636.40,115.34 L636.99,109.10 L637.58,103.27 L638.17,97.93 L638.76,93.15 L639.35,88.99 L639.94,85.51 L640.52,82.76 L641.11,80.76 L641.70,79.54 L642.29,79.13 L642.88,79.52 L643.47,80.71 L644.06,82.69 L644.65,85.42 L645.23,88.88 L645.82,93.01 L646.41,97.78 L647.00,103.10" style="stroke-width: 2px; stroke: rgb(74, 144, 226); stroke-opacity: 0.8;"/></g></g><g class="test-xtl" style="font-family: &quot;Open Sans&quot;, verdana, arial, sans-serif;"><text text-anchor="middle" font-size="11" dominant-baseline="hanging" stroke="none" fill="hsla(0,0%,75%,1)" fill-opacity="1" x="15.08953346583028" y="148.04648728448495">-6π</text><text text-anchor="middle" font-size="11" dominant-baseline="hanging" stroke="none" fill="hsla(0,0%,75%,1)" fill-opacity="1" x="63.718664172130794" y="148.04648728448495">-5π</text><text text-anchor="middle" font-size="11" dominant-baseline="hanging" stroke="none" fill="hsla(0,0%,75%,1)" fill-opacity="1" x="112.3477948784313" y="148.04648728448495">-4π</text><text text-anchor="middle" font-size="11" dominant-baseline="hanging" stroke="none" fill="hsla(0,0%,75%,1)" fill-opacity="1" x="160.97692558473182" y="148.04648728448495">-3π</text><text text-anchor="middle" font-size="11" dominant-baseline="hanging" stroke="none" fill="hsla(0,0%,75%,1)" fill-opacity="1" x="209.60605629103236" y="148.04648728448495">-2π</text><text text-anchor="middle" font-size="11" dominant-baseline="hanging" stroke="none" fill="hsla(0,0%,75%,1)" fill-opacity="1" x="258.23518699733285" y="148.04648728448495">-1π</text><text text-anchor="middle" font-size="11" dominant-baseline="hanging" stroke="none" fill="hsla(0,0%,75%,1)" fill-opacity="1" x="358.62844840993387" y="148.04648728448495">π</text><text text-anchor="middle" font-size="11" dominant-baseline="hanging" stroke="none" fill="hsla(0,0%,75%,1)" fill-opacity="1" x="407.25757911623435" y="148.04648728448495">2π</text><text text-anchor="middle" font-size="11" dominant-baseline="hanging" stroke="none" fill="hsla(0,0%,75%,1)" fill-opacity="1" x="455.8867098225349" y="148.04648728448495">3π</text><text text-anchor="middle" font-size="11" dominant-baseline="hanging" stroke="none" fill="hsla(0,0%,75%,1)" fill-opacity="1" x="504.5158405288354" y="148.04648728448495">4π</text><text text-anchor="middle" font-size="11" dominant-baseline="hanging" stroke="none" fill="hsla(0,0%,75%,1)" fill-opacity="1" x="553.1449712351359" y="148.04648728448495">5π</text><text text-anchor="middle" font-size="11" dominant-baseline="hanging" stroke="none" fill="hsla(0,0%,75%,1)" fill-opacity="1" x="601.7741019414365" y="148.04648728448495">6π</text><text text-anchor="middle" font-size="11" dominant-baseline="hanging" stroke="none" fill="hsla(0,0%,75%,1)" fill-opacity="1" x="302" y="146.04648728448495">0</text></g><g class="test-ytl" style="font-family: &quot;Open Sans&quot;, verdana, arial, sans-serif;"><text text-anchor="end" dominant-baseline="middle" font-size="11" stroke="none" fill="hsla(0,0%,75%,1)" fill-opacity="1" x="302" y="218.44215258618092">-5</text><text text-anchor="end" dominant-baseline="middle" font-size="11" stroke="none" fill="hsla(0,0%,75%,1)" fill-opacity="1" x="302" y="63.650821982788926">5</text></g><rect class="real" x="1" y="1" width="645" height="280" style="fill: transparent; stroke: none;" ne="0.7948077537447982"/></g></g></g><g/></g><g/><g/><g/></svg>
        <svg xmlns="http://www.w3.org/2000/svg" xmlns:xlink="http://www.w3.org/1999/xlink" width="660" height="310" style="width:660px;height:310px;font-family:Asana-Math, Asana;background:transparent;"></svg>
</svg>
